<?xml version="1.0" encoding="UTF-8"?> <svg xmlns="http://www.w3.org/2000/svg" width="50" height="50" viewBox="0 0 50 50" fill="none"><circle cx="25" cy="25" r="24.5" stroke="white"></circle><g clip-path="url(#clip0_106_1487)"><path d="M29.0287 18.5751H30.9857V15.0022H27.4293C27.1326 14.9898 23.5161 14.9207 22.5787 18.4952C22.5652 18.5327 22.2656 19.3828 22.2656 21.3686L19.0137 21.3785V25.1258L22.2697 25.1164V35.0005H27.2433V25.125H30.5351V21.3678H27.2433V20.1856C27.2433 19.4507 27.5531 18.5751 29.0287 18.5751ZM29.7122 22.1903V24.3016H26.4203V34.1772H23.0927V24.2909L19.8366 24.3004V22.199L23.1013 22.1895L23.0927 21.771C23.0499 19.6675 23.3499 18.7829 23.3634 18.7405C24.1724 15.6618 27.2614 15.8165 27.3939 15.8247L30.1627 15.8255V17.7525H29.0287C27.1058 17.7525 26.4207 19.0092 26.4207 20.1852V22.1903H29.7122Z" fill="white"></path></g><defs><clipPath id="clip0_106_1487"><rect width="20" height="20" fill="white" transform="translate(15 15)"></rect></clipPath></defs></svg> 