<?xml version="1.0" encoding="UTF-8"?> <svg xmlns="http://www.w3.org/2000/svg" width="50" height="50" viewBox="0 0 50 50" fill="none"><circle cx="25" cy="25" r="24.5" stroke="white"></circle><g clip-path="url(#clip0_106_1438)"><path fill-rule="evenodd" clip-rule="evenodd" d="M20.6178 16.2501C18.2057 16.2501 16.2503 18.2055 16.2503 20.6175V29.3826C16.2503 31.7947 18.2057 33.7501 20.6178 33.7501H29.3828C31.7949 33.7501 33.7503 31.7947 33.7503 29.3826V20.6175C33.7503 18.2055 31.7949 16.2501 29.3828 16.2501H20.6178ZM15.417 20.6175C15.417 17.7452 17.7455 15.4167 20.6178 15.4167H29.3828C32.2552 15.4167 34.5837 17.7452 34.5837 20.6175V29.3826C34.5837 32.2549 32.2552 34.5834 29.3828 34.5834H20.6178C17.7455 34.5834 15.417 32.2549 15.417 29.3826V20.6175ZM25.0002 20.6152C22.5786 20.6152 20.6154 22.5784 20.6154 25.0001C20.6154 27.4218 22.5786 29.385 25.0002 29.385C27.422 29.385 29.3852 27.4218 29.3852 25.0001C29.3852 22.5784 27.422 20.6152 25.0002 20.6152ZM19.782 25.0001C19.782 22.1181 22.1183 19.7818 25.0002 19.7818C27.8822 19.7818 30.2185 22.1181 30.2185 25.0001C30.2185 27.8821 27.8822 30.2183 25.0002 30.2183C22.1183 30.2183 19.782 27.8821 19.782 25.0001ZM30.2385 18.0358C29.7672 18.0358 29.3853 18.4178 29.3853 18.889C29.3853 19.3602 29.7672 19.7421 30.2385 19.7421C30.7097 19.7421 31.0917 19.3602 31.0917 18.889C31.0917 18.4178 30.7097 18.0358 30.2385 18.0358Z" fill="white"></path></g><defs><clipPath id="clip0_106_1438"><rect width="20" height="20" fill="white" transform="translate(15 15)"></rect></clipPath></defs></svg> 