<svg width="307" height="92" viewBox="0 0 307 92" fill="none" xmlns="http://www.w3.org/2000/svg">
<ellipse cx="51.3938" cy="53.9684" rx="37.4368" ry="37.7121" fill="#2C6CEE"/>
<ellipse cx="72.8384" cy="38.5177" rx="23.2617" ry="23.4327" fill="#F9B460" fill-opacity="0.9"/>
<path d="M69.0584 44.8885C69.0584 61.4294 55.7472 74.8384 39.3271 74.8384C22.9069 74.8384 9.5957 61.4294 9.5957 44.8885C9.5957 28.3475 22.9069 14.9385 39.3271 14.9385C55.7472 14.9385 69.0584 28.3475 69.0584 44.8885Z" fill="#7F44C9" fill-opacity="0.9"/>
<ellipse cx="58.2269" cy="5.49205" rx="5.45196" ry="5.49205" fill="#FE727D"/>
<ellipse cx="67.4592" cy="69.7123" rx="21.8078" ry="21.9682" fill="#FE727D" fill-opacity="0.9"/>
<ellipse cx="2.90771" cy="54.6276" rx="2.90771" ry="2.92909" fill="#7F44C9"/>
<ellipse cx="13.8843" cy="86.042" rx="3.41656" ry="3.44168" fill="#F9B460"/>
<ellipse cx="108.53" cy="50.7465" rx="6.46966" ry="6.51723" fill="#2C6CEE"/>
<ellipse cx="96.8269" cy="61.9505" rx="3.19848" ry="3.222" fill="#FE727D"/>
<g filter="url(#filter0_d_175_18)">
<path d="M29.5132 29.299C27.914 29.2807 23.1162 29.2909 23.1162 29.2909L29.5132 29.299ZM29.5132 29.299C31.1124 29.3174 31.912 30.617 32.5662 31.6423C33.2205 32.6677 35.692 41.8942 35.692 41.8942M35.692 41.8942C35.692 41.8942 39.9083 57.7113 40.5624 59.0294C41.2166 60.3475 42.307 61.4459 43.034 61.8852C43.0421 61.8901 43.0527 61.8949 43.066 61.8995M35.692 41.8942L37.2913 40.4296C37.2913 40.4296 38.309 39.5509 38.9632 39.0383C39.6174 38.5257 40.4897 37.7934 42.3071 37.7934C44.1244 37.7934 72.9107 37.7934 73.2742 37.7934C73.6377 37.7934 74.4461 38.342 74.9462 38.9651C75.2895 39.3928 75.5277 40.2099 75.5277 40.2099C75.5277 40.2099 75.757 41.3816 75.6004 42.1871C75.4438 42.9926 71.2389 57.9309 70.5846 59.0294C69.9304 60.1278 68.1858 61.9584 66.95 61.9584C65.7279 61.9584 44.2698 62.1781 43.066 61.8995M43.066 61.8995C43.066 61.8995 40.6352 61.8852 39.1813 62.6175C38.0432 63.1907 37.7275 64.1553 37.5821 65.4734C37.4724 66.4681 37.9 68.0087 38.309 68.6954C38.5271 69.0615 39.6902 70.1599 40.6352 70.1599C52.53 70.1599 71.0935 70.0135 71.0935 70.0135" stroke="white" stroke-width="3"/>
<path d="M25.0789 29.291H23.1162H24.4974" stroke="white" stroke-width="3" stroke-linejoin="round"/>
<path d="M49.8209 74.399C49.8209 76.6142 48.0412 78.3911 45.869 78.3911C43.6967 78.3911 41.917 76.6142 41.917 74.399C41.917 72.1839 43.6967 70.407 45.869 70.407C48.0412 70.407 49.8209 72.1839 49.8209 74.399Z" stroke="white" stroke-width="3"/>
<path d="M74.5367 74.399C74.5367 76.6142 72.757 78.3911 70.5848 78.3911C68.4125 78.3911 66.6328 76.6142 66.6328 74.399C66.6328 72.1839 68.4125 70.407 70.5848 70.407C72.757 70.407 74.5367 72.1839 74.5367 74.399Z" stroke="white" stroke-width="3"/>
</g>
<path d="M132.559 34.2955V31.9091H153.653V34.2955H144.434V61H141.778V34.2955H132.559ZM164.424 61.4545C162.539 61.4545 160.873 60.9763 159.424 60.0199C157.984 59.0634 156.857 57.7424 156.043 56.0568C155.229 54.3617 154.821 52.4062 154.821 50.1903C154.821 47.9555 155.229 45.9905 156.043 44.2955C156.857 42.5909 157.984 41.2652 159.424 40.3182C160.873 39.3617 162.539 38.8835 164.424 38.8835C166.308 38.8835 167.97 39.3617 169.409 40.3182C170.849 41.2746 171.976 42.6004 172.79 44.2955C173.614 45.9905 174.026 47.9555 174.026 50.1903C174.026 52.4062 173.619 54.3617 172.804 56.0568C171.99 57.7424 170.858 59.0634 169.409 60.0199C167.97 60.9763 166.308 61.4545 164.424 61.4545ZM164.424 59.1392C165.939 59.1392 167.222 58.732 168.273 57.9176C169.324 57.1032 170.12 56.0189 170.659 54.6648C171.209 53.3106 171.483 51.8191 171.483 50.1903C171.483 48.5616 171.209 47.0653 170.659 45.7017C170.12 44.3381 169.324 43.2443 168.273 42.4205C167.222 41.5966 165.939 41.1847 164.424 41.1847C162.918 41.1847 161.635 41.5966 160.574 42.4205C159.523 43.2443 158.723 44.3381 158.174 45.7017C157.634 47.0653 157.364 48.5616 157.364 50.1903C157.364 51.8191 157.634 53.3106 158.174 54.6648C158.723 56.0189 159.523 57.1032 160.574 57.9176C161.625 58.732 162.908 59.1392 164.424 59.1392ZM195.67 39.1818V61H193.127V39.1818H195.67ZM194.733 49.9631V52.3778C193.871 52.6903 193.052 52.9555 192.275 53.1733C191.499 53.3816 190.717 53.5426 189.931 53.6562C189.155 53.7699 188.326 53.8267 187.446 53.8267C184.993 53.8172 183.066 53.1875 181.664 51.9375C180.272 50.6875 179.576 48.7841 179.576 46.2273V39.1108H182.105V46.2273C182.105 47.4394 182.323 48.429 182.758 49.196C183.194 49.9631 183.809 50.5312 184.605 50.9006C185.4 51.2604 186.338 51.4403 187.417 51.4403C188.743 51.4403 189.993 51.3078 191.167 51.0426C192.342 50.7775 193.53 50.4176 194.733 49.9631ZM217.119 48.9119V51.2983H204.292V48.9119H217.119ZM204.917 39.1818V61H202.389V39.1818H204.917ZM218.98 39.1818V61H216.451V39.1818H218.98ZM234.189 61.4545C232.305 61.4545 230.638 60.9763 229.189 60.0199C227.75 59.0634 226.623 57.7424 225.809 56.0568C224.994 54.3617 224.587 52.4062 224.587 50.1903C224.587 47.9555 224.994 45.9905 225.809 44.2955C226.623 42.5909 227.75 41.2652 229.189 40.3182C230.638 39.3617 232.305 38.8835 234.189 38.8835C236.074 38.8835 237.736 39.3617 239.175 40.3182C240.614 41.2746 241.741 42.6004 242.556 44.2955C243.38 45.9905 243.792 47.9555 243.792 50.1903C243.792 52.4062 243.384 54.3617 242.57 56.0568C241.756 57.7424 240.624 59.0634 239.175 60.0199C237.736 60.9763 236.074 61.4545 234.189 61.4545ZM234.189 59.1392C235.704 59.1392 236.988 58.732 238.039 57.9176C239.09 57.1032 239.885 56.0189 240.425 54.6648C240.974 53.3106 241.249 51.8191 241.249 50.1903C241.249 48.5616 240.974 47.0653 240.425 45.7017C239.885 44.3381 239.09 43.2443 238.039 42.4205C236.988 41.5966 235.704 41.1847 234.189 41.1847C232.684 41.1847 231.4 41.5966 230.34 42.4205C229.289 43.2443 228.489 44.3381 227.939 45.7017C227.4 47.0653 227.13 48.5616 227.13 50.1903C227.13 51.8191 227.4 53.3106 227.939 54.6648C228.489 56.0189 229.289 57.1032 230.34 57.9176C231.391 58.732 232.674 59.1392 234.189 59.1392ZM270.677 61.3977C268.48 61.3977 266.567 60.8343 264.939 59.7074C263.31 58.5805 262.046 57.0369 261.146 55.0767C260.256 53.107 259.811 50.8532 259.811 48.3153V45.0483C259.811 42.4157 260.27 40.0814 261.189 38.0455C262.107 36.0095 263.4 34.4138 265.066 33.2585C266.733 32.0937 268.689 31.5114 270.933 31.5114C272.855 31.5114 274.55 31.8949 276.018 32.6619C277.495 33.4195 278.679 34.5038 279.569 35.9148C280.459 37.3258 280.985 38.9972 281.146 40.929H278.376C278.206 39.4706 277.775 38.2254 277.083 37.1932C276.402 36.161 275.53 35.375 274.47 34.8352C273.409 34.286 272.24 34.0114 270.961 34.0114C269.209 34.0114 267.699 34.4848 266.43 35.4318C265.161 36.3788 264.181 37.6856 263.49 39.3523C262.808 41.0189 262.467 42.9271 262.467 45.0767V48.2727C262.467 50.3371 262.798 52.1742 263.461 53.7841C264.124 55.3939 265.071 56.6581 266.302 57.5767C267.533 58.4858 268.996 58.9403 270.691 58.9403C272.017 58.9309 273.229 58.6562 274.328 58.1165C275.426 57.5767 276.331 56.7955 277.041 55.7727C277.761 54.7405 278.206 53.5047 278.376 52.0653H281.146C280.975 53.9687 280.431 55.6212 279.512 57.0227C278.603 58.4242 277.391 59.5038 275.876 60.2614C274.37 61.0189 272.637 61.3977 270.677 61.3977ZM261.941 47.8182V45.3608H274.768V47.8182H261.941Z" fill="white"/>
<defs>
<filter id="filter0_d_175_18" x="16.6162" y="27.7881" width="65.5391" height="62.103" filterUnits="userSpaceOnUse" color-interpolation-filters="sRGB">
<feFlood flood-opacity="0" result="BackgroundImageFix"/>
<feColorMatrix in="SourceAlpha" type="matrix" values="0 0 0 0 0 0 0 0 0 0 0 0 0 0 0 0 0 0 127 0" result="hardAlpha"/>
<feOffset dy="5"/>
<feGaussianBlur stdDeviation="2.5"/>
<feComposite in2="hardAlpha" operator="out"/>
<feColorMatrix type="matrix" values="0 0 0 0 0 0 0 0 0 0 0 0 0 0 0 0 0 0 0.25 0"/>
<feBlend mode="normal" in2="BackgroundImageFix" result="effect1_dropShadow_175_18"/>
<feBlend mode="normal" in="SourceGraphic" in2="effect1_dropShadow_175_18" result="shape"/>
</filter>
</defs>
</svg>
