<?xml version="1.0" encoding="UTF-8"?> <svg xmlns="http://www.w3.org/2000/svg" width="50" height="50" viewBox="0 0 50 50" fill="none"><g clip-path="url(#clip0_106_1430)"><mask id="mask0_106_1430" style="mask-type:luminance" maskUnits="userSpaceOnUse" x="15" y="15" width="20" height="20"><path d="M35 15H15V35H35V15Z" fill="white"></path></mask><g mask="url(#mask0_106_1430)"><path d="M15.3461 24.33L20.237 26.7675C20.4261 26.8608 20.6495 26.8542 20.8303 26.7483L25.1836 24.2175L22.5486 26.5525C22.4145 26.6717 22.3378 26.8417 22.3378 27.0208V32.7083C22.3378 33.3083 23.1036 33.5608 23.4628 33.0842L25.5769 30.2733L30.8052 33.2508C31.1719 33.4617 31.6419 33.25 31.7269 32.8308L34.9878 16.5808C35.0853 16.0925 34.5994 15.6942 34.1477 15.8758L15.3978 23.1883C14.8945 23.385 14.862 24.0892 15.3461 24.33ZM33.5377 17.4558L30.6719 31.7367L25.7178 28.915C25.4478 28.7608 25.1003 28.8292 24.9086 29.0825L23.5878 30.8383V27.3017L30.7136 20.9883C31.2778 20.4892 30.6294 19.6017 29.9853 19.98L20.4936 25.4983L17.167 23.8408L33.5377 17.4558Z" fill="white"></path></g></g><circle cx="25" cy="25" r="24.5" stroke="white"></circle><defs><clipPath id="clip0_106_1430"><rect width="20" height="20" fill="white" transform="translate(15 15)"></rect></clipPath></defs></svg> 